# xmcd
#
# Track frame offsets:
#	150
#	17234
#	29755
#	46700
#	57310
#	73544
#	90900
#	107572
#	137384
#	167185
#	188634
#	210785
#	233780
#	252459
#	274495
#	295599
#
# Disc length: 4504 seconds
#
# Revision: 1
# Processed by: cddbd v1.4PL0 Copyright (c) Steve Scherf et al.
# Submitted via: gmmusic 1.1.10
#
DISCID=d9119610
DTITLE=Various Artist - Latin Fever
DYEAR=1998
DGENRE=
TTITLE0=The Blackout Allstars - I Like It
TTITLE1=Tamba Trio - Mas Que Nada
TTITLE2=Gilberto Gil - Toda Menina Baiana
TTITLE3=Cal Tjader - Soul Sauce
TTITLE4=Mongo Santamaria - Watermelon Man
TTITLE5=Willie Bobo - Always There
TTITLE6=Snowboy and the Latin Section - Mr P.C.
TTITLE7=Cedar Walton - Latin America
TTITLE8=The Afro-Cuban Allstars - Amor Verdadero
TTITLE9=Bossa Nostra - Crickets Sing for Anamaria
TTITLE10=Hanny - Sexo, Dinero Y Fantasia
TTITLE11=Cubana Bop - Cantaloupe Island
TTITLE12=S-Tone Inc. - Ainda Sonhar
TTITLE13=Negrocan - Aquela Esquina
TTITLE14=Pucho and His Latin Soul Brothers - Chitterlings Con Carne
TTITLE15=C and ido - Jingo
EXTD=
EXTT0=
EXTT1=
EXTT2=
EXTT3=
EXTT4=
EXTT5=
EXTT6=
EXTT7=
EXTT8=
EXTT9=
EXTT10=
EXTT11=
EXTT12=
EXTT13=
EXTT14=
EXTT15=
PLAYORDER=
